{
	"patcher" : 	{
		"fileversion" : 1,
		"appversion" : 		{
			"major" : 8,
			"minor" : 3,
			"revision" : 1,
			"architecture" : "x64",
			"modernui" : 1
		}
,
		"classnamespace" : "box",
		"rect" : [ 0.0, 0.0, 640.0, 480.0 ],
		"bglocked" : 0,
		"openinpresentation" : 0,
		"default_fontsize" : 12.0,
		"default_fontface" : 0,
		"default_fontname" : "Arial",
		"gridonopen" : 1,
		"gridsize" : [ 15.0, 15.0 ],
		"gridsnaponopen" : 1,
		"objectsnaponopen" : 1,
		"statusbarvisible" : 2,
		"toolbarvisible" : 1,
		"lefttoolbarpinned" : 0,
		"toptoolbarpinned" : 0,
		"righttoolbarpinned" : 0,
		"bottomtoolbarpinned" : 0,
		"toolbars_unpinned_last_save" : 0,
		"tallnewobj" : 0,
		"boxanimatetime" : 200,
		"enablehscroll" : 1,
		"enablevscroll" : 1,
		"devicewidth" : 0.0,
		"description" : "",
		"digest" : "",
		"tags" : "",
		"style" : "",
		"subpatcher_template" : "",
		"assistshowspatchername" : 0,
		"boxes" : [ 			{
				"box" : 				{
					"id" : "obj-200",
					"maxclass" : "newobj",
					"numinlets" : 2,
					"numoutlets" : 2,
					"outlettype" : [ "bang", "" ],
					"patching_rect" : [ 307.66666567325592, 9.0, 34.0, 22.0 ],
					"text" : "sel 7"
				}

			}
, 			{
				"box" : 				{
					"id" : "obj-199",
					"maxclass" : "comment",
					"numinlets" : 1,
					"numoutlets" : 0,
					"patching_rect" : [ 429.33333283662796, 13.0, 117.16665381193161, 20.0 ],
					"text" : "RANDOMIZE ALL"
				}

			}
, 			{
				"box" : 				{
					"id" : "obj-198",
					"maxclass" : "button",
					"numinlets" : 1,
					"numoutlets" : 1,
					"outlettype" : [ "bang" ],
					"parameter_enable" : 0,
					"patching_rect" : [ 403.33333283662796, 9.0, 24.0, 24.0 ]
				}

			}
, 			{
				"box" : 				{
					"floatoutput" : 1,
					"id" : "obj-193",
					"maxclass" : "slider",
					"numinlets" : 1,
					"numoutlets" : 1,
					"outlettype" : [ "" ],
					"parameter_enable" : 0,
					"patching_rect" : [ 24.83333283662796, 464.666673421859741, 28.0, 183.0 ],
					"size" : 300.0
				}

			}
, 			{
				"box" : 				{
					"fontname" : "Arial",
					"fontsize" : 11.595186999999999,
					"id" : "obj-185",
					"maxclass" : "message",
					"numinlets" : 2,
					"numoutlets" : 1,
					"outlettype" : [ "" ],
					"patching_rect" : [ 98.999999642372131, 581.288609263373473, 34.0, 21.0 ],
					"text" : "clear"
				}

			}
, 			{
				"box" : 				{
					"id" : "obj-181",
					"maxclass" : "comment",
					"numinlets" : 1,
					"numoutlets" : 0,
					"patching_rect" : [ 2.83333283662796, 441.0, 79.833333194255829, 20.0 ],
					"presentation_linecount" : 2,
					"text" : "KICK PITCH"
				}

			}
, 			{
				"box" : 				{
					"id" : "obj-171",
					"linecount" : 2,
					"maxclass" : "comment",
					"numinlets" : 1,
					"numoutlets" : 0,
					"patching_rect" : [ 339.66666567325592, 173.0, 33.0, 33.0 ],
					"presentation_linecount" : 2,
					"text" : " % \nYES"
				}

			}
, 			{
				"box" : 				{
					"id" : "obj-172",
					"linecount" : 2,
					"maxclass" : "comment",
					"numinlets" : 1,
					"numoutlets" : 0,
					"patching_rect" : [ 307.66666567325592, 173.0, 30.0, 33.0 ],
					"presentation_linecount" : 2,
					"text" : " % \nNO"
				}

			}
, 			{
				"box" : 				{
					"id" : "obj-169",
					"linecount" : 2,
					"maxclass" : "comment",
					"numinlets" : 1,
					"numoutlets" : 0,
					"patching_rect" : [ 516.243902439024396, 178.0, 33.0, 33.0 ],
					"presentation_linecount" : 2,
					"text" : " % \nYES"
				}

			}
, 			{
				"box" : 				{
					"id" : "obj-170",
					"linecount" : 2,
					"maxclass" : "comment",
					"numinlets" : 1,
					"numoutlets" : 0,
					"patching_rect" : [ 484.243902439024396, 178.0, 30.0, 33.0 ],
					"presentation_linecount" : 2,
					"text" : " % \nNO"
				}

			}
, 			{
				"box" : 				{
					"id" : "obj-167",
					"linecount" : 2,
					"maxclass" : "comment",
					"numinlets" : 1,
					"numoutlets" : 0,
					"patching_rect" : [ 687.243902439024396, 178.0, 33.0, 33.0 ],
					"presentation_linecount" : 2,
					"text" : " % \nYES"
				}

			}
, 			{
				"box" : 				{
					"id" : "obj-168",
					"linecount" : 2,
					"maxclass" : "comment",
					"numinlets" : 1,
					"numoutlets" : 0,
					"patching_rect" : [ 655.243902439024396, 178.0, 30.0, 33.0 ],
					"presentation_linecount" : 2,
					"text" : " % \nNO"
				}

			}
, 			{
				"box" : 				{
					"id" : "obj-163",
					"maxclass" : "comment",
					"numinlets" : 1,
					"numoutlets" : 0,
					"patching_rect" : [ 64.666666030883789, 179.0, 52.0, 20.0 ],
					"text" : "START"
				}

			}
, 			{
				"box" : 				{
					"id" : "obj-162",
					"maxclass" : "comment",
					"numinlets" : 1,
					"numoutlets" : 0,
					"patching_rect" : [ 725.000011384487152, 726.666662752628326, 92.666666805744171, 20.0 ],
					"text" : "HIHAT ENV"
				}

			}
, 			{
				"box" : 				{
					"bgcolor" : [ 0.0, 0.549019607843137, 1.0, 0.0 ],
					"id" : "obj-161",
					"maxclass" : "comment",
					"numinlets" : 1,
					"numoutlets" : 0,
					"patching_rect" : [ 434.166666030883789, 673.666662752628326, 92.666666805744171, 20.0 ],
					"presentation_linecount" : 2,
					"text" : "SNARE ENV",
					"textcolor" : [ 0.368627450980392, 0.047058823529412, 0.047058823529412, 1.0 ]
				}

			}
, 			{
				"box" : 				{
					"id" : "obj-160",
					"maxclass" : "comment",
					"numinlets" : 1,
					"numoutlets" : 0,
					"patching_rect" : [ 145.416666239500046, 588.999994814395905, 74.833333194255829, 20.0 ],
					"presentation_linecount" : 2,
					"text" : "KICK ENV"
				}

			}
, 			{
				"box" : 				{
					"id" : "obj-158",
					"maxclass" : "comment",
					"numinlets" : 1,
					"numoutlets" : 0,
					"patching_rect" : [ 732.000011384487152, 588.999994814395905, 78.666666805744171, 20.0 ],
					"presentation_linecount" : 2,
					"text" : "HATS  EQ"
				}

			}
, 			{
				"box" : 				{
					"id" : "obj-157",
					"maxclass" : "comment",
					"numinlets" : 1,
					"numoutlets" : 0,
					"patching_rect" : [ 434.166666030883789, 526.333328306674957, 71.0, 20.0 ],
					"presentation_linecount" : 2,
					"text" : "SNARE EQ"
				}

			}
, 			{
				"box" : 				{
					"id" : "obj-156",
					"maxclass" : "comment",
					"numinlets" : 1,
					"numoutlets" : 0,
					"patching_rect" : [ 629.410568678524442, 67.0, 102.0, 20.0 ],
					"text" : "HIHAT RANDOM"
				}

			}
, 			{
				"box" : 				{
					"id" : "obj-155",
					"maxclass" : "comment",
					"numinlets" : 1,
					"numoutlets" : 0,
					"patching_rect" : [ 438.077248627092786, 67.0, 117.16665381193161, 20.0 ],
					"presentation_linecount" : 2,
					"text" : "SNARE RANDOM"
				}

			}
, 			{
				"box" : 				{
					"id" : "obj-154",
					"maxclass" : "comment",
					"numinlets" : 1,
					"numoutlets" : 0,
					"patching_rect" : [ 264.243902439024396, 67.0, 102.0, 20.0 ],
					"text" : "KICK RANDOM"
				}

			}
, 			{
				"box" : 				{
					"id" : "obj-153",
					"maxclass" : "comment",
					"numinlets" : 1,
					"numoutlets" : 0,
					"patching_rect" : [ 103.33333283662796, 103.0, 102.0, 20.0 ],
					"text" : "RANDOMIZERS"
				}

			}
, 			{
				"box" : 				{
					"id" : "obj-147",
					"maxclass" : "button",
					"numinlets" : 1,
					"numoutlets" : 1,
					"outlettype" : [ "bang" ],
					"parameter_enable" : 0,
					"patching_rect" : [ 574.33333283662796, 67.0, 24.0, 24.0 ]
				}

			}
, 			{
				"box" : 				{
					"id" : "obj-148",
					"maxclass" : "newobj",
					"numinlets" : 2,
					"numoutlets" : 3,
					"outlettype" : [ "bang", "bang", "int" ],
					"patching_rect" : [ 574.33333283662796, 103.0, 40.0, 22.0 ],
					"text" : "uzi 8"
				}

			}
, 			{
				"box" : 				{
					"id" : "obj-149",
					"maxclass" : "itable",
					"name" : "",
					"numinlets" : 2,
					"numoutlets" : 2,
					"outlettype" : [ "int", "bang" ],
					"parameter_enable" : 0,
					"patching_rect" : [ 655.243902439024396, 96.5, 64.0, 75.5 ],
					"pointcolor" : [ 0.92156862745098, 0.0, 1.0, 1.0 ],
					"range" : 10,
					"size" : 2,
					"table_data" : [ 0, 2, 2 ]
				}

			}
, 			{
				"box" : 				{
					"id" : "obj-150",
					"maxclass" : "newobj",
					"numinlets" : 3,
					"numoutlets" : 1,
					"outlettype" : [ "" ],
					"patching_rect" : [ 574.33333283662796, 178.0, 56.0, 22.0 ],
					"text" : "pack i 2 i"
				}

			}
, 			{
				"box" : 				{
					"id" : "obj-151",
					"maxclass" : "newobj",
					"numinlets" : 5,
					"numoutlets" : 4,
					"outlettype" : [ "int", "", "", "int" ],
					"patching_rect" : [ 574.33333283662796, 139.0, 69.0, 22.0 ],
					"text" : "counter 0 7"
				}

			}
, 			{
				"box" : 				{
					"id" : "obj-142",
					"maxclass" : "button",
					"numinlets" : 1,
					"numoutlets" : 1,
					"outlettype" : [ "bang" ],
					"parameter_enable" : 0,
					"patching_rect" : [ 403.33333283662796, 67.0, 24.0, 24.0 ]
				}

			}
, 			{
				"box" : 				{
					"id" : "obj-143",
					"maxclass" : "newobj",
					"numinlets" : 2,
					"numoutlets" : 3,
					"outlettype" : [ "bang", "bang", "int" ],
					"patching_rect" : [ 403.33333283662796, 103.0, 40.0, 22.0 ],
					"text" : "uzi 8"
				}

			}
, 			{
				"box" : 				{
					"id" : "obj-144",
					"maxclass" : "itable",
					"name" : "",
					"numinlets" : 2,
					"numoutlets" : 2,
					"outlettype" : [ "int", "bang" ],
					"parameter_enable" : 0,
					"patching_rect" : [ 484.243902439024396, 96.5, 64.0, 75.5 ],
					"pointcolor" : [ 0.0, 1.0, 0.298039215686275, 1.0 ],
					"range" : 10,
					"selectioncolor" : [ 0.019607843137255, 0.396078431372549, 0.066666666666667, 1.0 ],
					"size" : 2,
					"table_data" : [ 0, 3, 2 ]
				}

			}
, 			{
				"box" : 				{
					"id" : "obj-145",
					"maxclass" : "newobj",
					"numinlets" : 3,
					"numoutlets" : 1,
					"outlettype" : [ "" ],
					"patching_rect" : [ 403.33333283662796, 174.0, 56.0, 22.0 ],
					"text" : "pack i 1 i"
				}

			}
, 			{
				"box" : 				{
					"id" : "obj-146",
					"maxclass" : "newobj",
					"numinlets" : 5,
					"numoutlets" : 4,
					"outlettype" : [ "int", "", "", "int" ],
					"patching_rect" : [ 403.33333283662796, 139.0, 69.0, 22.0 ],
					"text" : "counter 0 7"
				}

			}
, 			{
				"box" : 				{
					"id" : "obj-141",
					"maxclass" : "button",
					"numinlets" : 1,
					"numoutlets" : 1,
					"outlettype" : [ "bang" ],
					"parameter_enable" : 0,
					"patching_rect" : [ 225.33333283662796, 71.0, 24.0, 24.0 ]
				}

			}
, 			{
				"box" : 				{
					"id" : "obj-137",
					"maxclass" : "newobj",
					"numinlets" : 2,
					"numoutlets" : 3,
					"outlettype" : [ "bang", "bang", "int" ],
					"patching_rect" : [ 225.33333283662796, 103.0, 40.0, 22.0 ],
					"text" : "uzi 8"
				}

			}
, 			{
				"box" : 				{
					"id" : "obj-136",
					"maxclass" : "itable",
					"name" : "",
					"numinlets" : 2,
					"numoutlets" : 2,
					"outlettype" : [ "int", "bang" ],
					"parameter_enable" : 0,
					"patching_rect" : [ 307.66666567325592, 96.5, 64.0, 75.5 ],
					"pointcolor" : [ 1.0, 0.019607843137255, 0.019607843137255, 1.0 ],
					"range" : 10,
					"selectioncolor" : [ 1.0, 0.0, 0.250980392156863, 1.0 ],
					"size" : 2,
					"table_data" : [ 0, 3, 2 ]
				}

			}
, 			{
				"box" : 				{
					"id" : "obj-135",
					"maxclass" : "newobj",
					"numinlets" : 3,
					"numoutlets" : 1,
					"outlettype" : [ "" ],
					"patching_rect" : [ 225.33333283662796, 174.0, 56.0, 22.0 ],
					"text" : "pack i 0 i"
				}

			}
, 			{
				"box" : 				{
					"id" : "obj-134",
					"maxclass" : "newobj",
					"numinlets" : 5,
					"numoutlets" : 4,
					"outlettype" : [ "int", "", "", "int" ],
					"patching_rect" : [ 225.33333283662796, 139.0, 69.0, 22.0 ],
					"text" : "counter 0 7"
				}

			}
, 			{
				"box" : 				{
					"id" : "obj-133",
					"maxclass" : "toggle",
					"numinlets" : 1,
					"numoutlets" : 1,
					"outlettype" : [ "int" ],
					"parameter_enable" : 0,
					"patching_rect" : [ 72.666666030883789, 201.0, 24.0, 24.0 ]
				}

			}
, 			{
				"box" : 				{
					"id" : "obj-131",
					"maxclass" : "newobj",
					"numinlets" : 2,
					"numoutlets" : 1,
					"outlettype" : [ "bang" ],
					"patching_rect" : [ 72.83333283662796, 239.0, 63.0, 22.0 ],
					"text" : "metro 165"
				}

			}
, 			{
				"box" : 				{
					"id" : "obj-126",
					"maxclass" : "newobj",
					"numinlets" : 5,
					"numoutlets" : 4,
					"outlettype" : [ "int", "", "", "int" ],
					"patching_rect" : [ 72.83333283662796, 267.0, 69.0, 22.0 ],
					"text" : "counter 0 7"
				}

			}
, 			{
				"box" : 				{
					"id" : "obj-125",
					"maxclass" : "newobj",
					"numinlets" : 2,
					"numoutlets" : 2,
					"outlettype" : [ "bang", "" ],
					"patching_rect" : [ 910.922782605741077, 441.0, 34.0, 22.0 ],
					"text" : "sel 1"
				}

			}
, 			{
				"box" : 				{
					"id" : "obj-124",
					"maxclass" : "newobj",
					"numinlets" : 2,
					"numoutlets" : 2,
					"outlettype" : [ "bang", "" ],
					"patching_rect" : [ 846.833342790603638, 441.0, 34.0, 22.0 ],
					"text" : "sel 1"
				}

			}
, 			{
				"box" : 				{
					"id" : "obj-123",
					"maxclass" : "newobj",
					"numinlets" : 2,
					"numoutlets" : 2,
					"outlettype" : [ "bang", "" ],
					"patching_rect" : [ 788.333342790603638, 441.0, 34.0, 22.0 ],
					"text" : "sel 1"
				}

			}
, 			{
				"box" : 				{
					"id" : "obj-122",
					"maxclass" : "newobj",
					"numinlets" : 1,
					"numoutlets" : 3,
					"outlettype" : [ "int", "int", "int" ],
					"patching_rect" : [ 831.333342790603638, 412.0, 65.0, 22.0 ],
					"text" : "unpack i i i"
				}

			}
, 			{
				"box" : 				{
					"id" : "obj-115",
					"maxclass" : "number",
					"numinlets" : 1,
					"numoutlets" : 2,
					"outlettype" : [ "", "bang" ],
					"parameter_enable" : 0,
					"patching_rect" : [ 72.83333283662796, 299.0, 50.0, 22.0 ]
				}

			}
, 			{
				"box" : 				{
					"id" : "obj-113",
					"maxclass" : "message",
					"numinlets" : 2,
					"numoutlets" : 1,
					"outlettype" : [ "" ],
					"patching_rect" : [ 72.83333283662796, 331.0, 81.0, 22.0 ],
					"text" : "getcolumn $1"
				}

			}
, 			{
				"box" : 				{
					"id" : "obj-110",
					"maxclass" : "comment",
					"numinlets" : 1,
					"numoutlets" : 0,
					"patching_rect" : [ 261.119995525939657, 353.124998115003109, 57.0, 20.0 ],
					"text" : "HATS"
				}

			}
, 			{
				"box" : 				{
					"id" : "obj-109",
					"maxclass" : "comment",
					"numinlets" : 1,
					"numoutlets" : 0,
					"patching_rect" : [ 248.030565128336093, 300.0, 57.0, 20.0 ],
					"text" : "SNARE"
				}

			}
, 			{
				"box" : 				{
					"id" : "obj-108",
					"maxclass" : "comment",
					"numinlets" : 1,
					"numoutlets" : 0,
					"patching_rect" : [ 261.119995525939657, 250.624998115003109, 57.0, 20.0 ],
					"text" : "KICK"
				}

			}
, 			{
				"box" : 				{
					"id" : "obj-106",
					"maxclass" : "message",
					"numinlets" : 2,
					"numoutlets" : 1,
					"outlettype" : [ "" ],
					"patching_rect" : [ 194.422763234231525, 377.0, 50.0, 22.0 ],
					"text" : "7 0 1"
				}

			}
, 			{
				"box" : 				{
					"bgcolor" : [ 0.2, 0.670588235294118, 0.815686274509804, 1.0 ],
					"color" : [ 1.0, 0.0, 0.431372549019608, 1.0 ],
					"elementcolor" : [ 1.0, 1.0, 1.0, 1.0 ],
					"id" : "obj-104",
					"maxclass" : "matrixctrl",
					"numinlets" : 1,
					"numoutlets" : 2,
					"outlettype" : [ "list", "list" ],
					"parameter_enable" : 0,
					"patching_rect" : [ 297.552932115468479, 232.375001884996891, 546.560801442318848, 155.249996230006218 ],
					"rows" : 3
				}

			}
, 			{
				"box" : 				{
					"attr" : "edit_mode",
					"id" : "obj-93",
					"maxclass" : "attrui",
					"numinlets" : 1,
					"numoutlets" : 1,
					"outlettype" : [ "" ],
					"parameter_enable" : 0,
					"patching_rect" : [ 663.66667902469635, 490.000009179115295, 195.333331525325775, 22.0 ]
				}

			}
, 			{
				"box" : 				{
					"fontface" : 0,
					"id" : "obj-94",
					"linmarkers" : [ 0.0, 11025.0, 16537.5 ],
					"logmarkers" : [ 0.0, 100.0, 1000.0, 10000.0 ],
					"maxclass" : "filtergraph~",
					"nfilters" : 1,
					"numinlets" : 8,
					"numoutlets" : 7,
					"outlettype" : [ "list", "float", "float", "float", "float", "list", "int" ],
					"parameter_enable" : 0,
					"patching_rect" : [ 663.66667902469635, 523.999997824430466, 158.666663765907288, 55.333343535661697 ],
					"setfilter" : [ 0, 2, 1, 0, 0, 2774.35107421875, 1.408361554145813, 0.70710676908493, 0.0, 0.0, 0.0, 0.0, 0.0, 0.0 ]
				}

			}
, 			{
				"box" : 				{
					"id" : "obj-95",
					"maxclass" : "newobj",
					"numinlets" : 6,
					"numoutlets" : 1,
					"outlettype" : [ "signal" ],
					"patching_rect" : [ 548.333342254161835, 706.000015616416931, 71.5, 22.0 ],
					"text" : "biquad~"
				}

			}
, 			{
				"box" : 				{
					"id" : "obj-96",
					"maxclass" : "newobj",
					"numinlets" : 1,
					"numoutlets" : 1,
					"outlettype" : [ "signal" ],
					"patching_rect" : [ 548.83333283662796, 667.999995470046997, 44.0, 22.0 ],
					"text" : "noise~"
				}

			}
, 			{
				"box" : 				{
					"id" : "obj-97",
					"maxclass" : "comment",
					"numinlets" : 1,
					"numoutlets" : 0,
					"patching_rect" : [ 603.211385759638688, 552.666662752628326, 58.666666805744171, 20.0 ],
					"text" : "HATS"
				}

			}
, 			{
				"box" : 				{
					"id" : "obj-99",
					"maxclass" : "button",
					"numinlets" : 1,
					"numoutlets" : 1,
					"outlettype" : [ "bang" ],
					"parameter_enable" : 0,
					"patching_rect" : [ 615.422772651765399, 574.666662752628326, 34.243893021490521, 34.243893021490521 ]
				}

			}
, 			{
				"box" : 				{
					"id" : "obj-100",
					"maxclass" : "newobj",
					"numinlets" : 2,
					"numoutlets" : 2,
					"outlettype" : [ "signal", "bang" ],
					"patching_rect" : [ 643.83333283662796, 759.666662752628326, 34.0, 22.0 ],
					"text" : "line~"
				}

			}
, 			{
				"box" : 				{
					"fontname" : "Arial",
					"fontsize" : 11.595186999999999,
					"id" : "obj-101",
					"maxclass" : "message",
					"numinlets" : 2,
					"numoutlets" : 1,
					"outlettype" : [ "" ],
					"patching_rect" : [ 683.83333283662796, 592.666662871837616, 34.0, 21.0 ],
					"text" : "clear"
				}

			}
, 			{
				"box" : 				{
					"addpoints" : [ 10.335821513981783, 0.005847918882705, 0, 18.087759498477908, 0.242690024145863, 0, 64.59938740545465, 0.0, 0 ],
					"bgcolor" : [ 0.694117647058824, 0.03921568627451, 0.72156862745098, 1.0 ],
					"id" : "obj-102",
					"linecolor" : [ 0.0, 0.776470588235294, 0.764705882352941, 1.0 ],
					"maxclass" : "function",
					"numinlets" : 1,
					"numoutlets" : 4,
					"outlettype" : [ "float", "", "", "bang" ],
					"parameter_enable" : 0,
					"patching_rect" : [ 663.66667902469635, 642.666662752628326, 141.0, 82.0 ],
					"range" : [ 0.0, 0.5 ]
				}

			}
, 			{
				"box" : 				{
					"id" : "obj-103",
					"maxclass" : "newobj",
					"numinlets" : 2,
					"numoutlets" : 1,
					"outlettype" : [ "signal" ],
					"patching_rect" : [ 548.83333283662796, 749.666662752628326, 34.0, 22.0 ],
					"text" : "*~ 0."
				}

			}
, 			{
				"box" : 				{
					"attr" : "edit_mode",
					"id" : "obj-92",
					"maxclass" : "attrui",
					"numinlets" : 1,
					"numoutlets" : 1,
					"outlettype" : [ "" ],
					"parameter_enable" : 0,
					"patching_rect" : [ 375.66667902469635, 436.333341240882874, 195.333331525325775, 22.0 ]
				}

			}
, 			{
				"box" : 				{
					"fontface" : 0,
					"id" : "obj-90",
					"linmarkers" : [ 0.0, 11025.0, 16537.5 ],
					"logmarkers" : [ 0.0, 100.0, 1000.0, 10000.0 ],
					"maxclass" : "filtergraph~",
					"nfilters" : 1,
					"numinlets" : 8,
					"numoutlets" : 7,
					"outlettype" : [ "list", "float", "float", "float", "float", "list", "int" ],
					"parameter_enable" : 0,
					"patching_rect" : [ 375.66667902469635, 470.333329886198044, 158.666663765907288, 55.333343535661697 ],
					"setfilter" : [ 0, 8, 1, 0, 0, 1723.43798828125, 12.214889526367188, 0.45327040553093, 0.0, 0.0, 0.0, 0.0, 0.0, 0.0 ]
				}

			}
, 			{
				"box" : 				{
					"id" : "obj-89",
					"maxclass" : "newobj",
					"numinlets" : 6,
					"numoutlets" : 1,
					"outlettype" : [ "signal" ],
					"patching_rect" : [ 260.333342254161835, 652.333347678184509, 71.5, 22.0 ],
					"text" : "biquad~"
				}

			}
, 			{
				"box" : 				{
					"id" : "obj-87",
					"maxclass" : "newobj",
					"numinlets" : 1,
					"numoutlets" : 1,
					"outlettype" : [ "signal" ],
					"patching_rect" : [ 260.83333283662796, 614.333327531814575, 44.0, 22.0 ],
					"text" : "noise~"
				}

			}
, 			{
				"box" : 				{
					"id" : "obj-83",
					"maxclass" : "ezdac~",
					"numinlets" : 2,
					"numoutlets" : 0,
					"patching_rect" : [ 167.33333283662796, 778.666686594486237, 45.0, 45.0 ]
				}

			}
, 			{
				"box" : 				{
					"id" : "obj-82",
					"maxclass" : "newobj",
					"numinlets" : 3,
					"numoutlets" : 1,
					"outlettype" : [ "signal" ],
					"patching_rect" : [ 165.33333283662796, 749.000018358230591, 58.0, 22.0 ],
					"text" : "clip~ -1 1"
				}

			}
, 			{
				"box" : 				{
					"id" : "obj-39",
					"maxclass" : "comment",
					"numinlets" : 1,
					"numoutlets" : 0,
					"patching_rect" : [ 285.91056903615231, 526.499994933605194, 58.666666805744171, 20.0 ],
					"text" : "SNARE"
				}

			}
, 			{
				"box" : 				{
					"id" : "obj-41",
					"maxclass" : "button",
					"numinlets" : 1,
					"numoutlets" : 1,
					"outlettype" : [ "bang" ],
					"parameter_enable" : 0,
					"patching_rect" : [ 332.833332479000092, 526.499994933605194, 33.5, 33.5 ]
				}

			}
, 			{
				"box" : 				{
					"id" : "obj-42",
					"maxclass" : "newobj",
					"numinlets" : 2,
					"numoutlets" : 2,
					"outlettype" : [ "signal", "bang" ],
					"patching_rect" : [ 355.83333283662796, 705.999994814395905, 34.0, 22.0 ],
					"text" : "line~"
				}

			}
, 			{
				"box" : 				{
					"fontname" : "Arial",
					"fontsize" : 11.595186999999999,
					"id" : "obj-43",
					"maxclass" : "message",
					"numinlets" : 2,
					"numoutlets" : 1,
					"outlettype" : [ "" ],
					"patching_rect" : [ 395.83333283662796, 538.999994933605194, 34.0, 21.0 ],
					"text" : "clear"
				}

			}
, 			{
				"box" : 				{
					"addpoints" : [ 0.0, 0.0, 0, 10.335821513981783, 0.491228024687683, 0, 56.847449420958526, 0.0, 0 ],
					"bgcolor" : [ 0.258823529411765, 0.686274509803922, 0.031372549019608, 1.0 ],
					"id" : "obj-44",
					"linecolor" : [ 0.905882352941176, 0.945098039215686, 0.003921568627451, 1.0 ],
					"maxclass" : "function",
					"numinlets" : 1,
					"numoutlets" : 4,
					"outlettype" : [ "float", "", "", "bang" ],
					"parameter_enable" : 0,
					"patching_rect" : [ 375.66667902469635, 588.999994814395905, 141.0, 82.0 ],
					"range" : [ 0.0, 0.5 ]
				}

			}
, 			{
				"box" : 				{
					"id" : "obj-45",
					"maxclass" : "newobj",
					"numinlets" : 2,
					"numoutlets" : 1,
					"outlettype" : [ "signal" ],
					"patching_rect" : [ 260.83333283662796, 695.999994814395905, 34.0, 22.0 ],
					"text" : "*~ 0."
				}

			}
, 			{
				"box" : 				{
					"id" : "obj-38",
					"maxclass" : "comment",
					"numinlets" : 1,
					"numoutlets" : 0,
					"patching_rect" : [ 127.33333283662796, 532.500001609325409, 60.833333194255829, 20.0 ],
					"text" : "KICK"
				}

			}
, 			{
				"box" : 				{
					"id" : "obj-21",
					"maxclass" : "button",
					"numinlets" : 1,
					"numoutlets" : 1,
					"outlettype" : [ "bang" ],
					"parameter_enable" : 0,
					"patching_rect" : [ 90.333339512348175, 532.500001609325409, 33.99998664855957, 33.99998664855957 ]
				}

			}
, 			{
				"box" : 				{
					"id" : "obj-13",
					"maxclass" : "newobj",
					"numinlets" : 2,
					"numoutlets" : 2,
					"outlettype" : [ "signal", "bang" ],
					"patching_rect" : [ 107.83333283662796, 730.333328306674957, 34.0, 22.0 ],
					"text" : "line~"
				}

			}
, 			{
				"box" : 				{
					"addpoints" : [ 0.0, 0.0, 0, 0.0, 0.444444356257455, 0, 62.015506648278048, 0.654970672046929, 0, 170.542638431223793, 0.0, 0 ],
					"bgcolor" : [ 1.0, 0.145098039215686, 0.145098039215686, 1.0 ],
					"id" : "obj-11",
					"linecolor" : [ 0.0, 1.0, 0.337254901960784, 1.0 ],
					"maxclass" : "function",
					"numinlets" : 1,
					"numoutlets" : 4,
					"outlettype" : [ "float", "", "", "bang" ],
					"parameter_enable" : 0,
					"patching_rect" : [ 98.999999642372131, 613.333328306674957, 141.0, 82.0 ]
				}

			}
, 			{
				"box" : 				{
					"id" : "obj-10",
					"maxclass" : "newobj",
					"numinlets" : 2,
					"numoutlets" : 1,
					"outlettype" : [ "signal" ],
					"patching_rect" : [ 12.83333283662796, 714.999994814395905, 34.0, 22.0 ],
					"text" : "*~ 0."
				}

			}
, 			{
				"box" : 				{
					"id" : "obj-7",
					"maxclass" : "newobj",
					"numinlets" : 2,
					"numoutlets" : 1,
					"outlettype" : [ "signal" ],
					"patching_rect" : [ 12.83333283662796, 666.333328306674957, 66.0, 22.0 ],
					"text" : "cycle~ 200"
				}

			}
 ],
		"lines" : [ 			{
				"patchline" : 				{
					"destination" : [ "obj-82", 0 ],
					"midpoints" : [ 22.33333283662796, 711.333339840173721, 174.83333283662796, 711.333339840173721 ],
					"source" : [ "obj-10", 0 ]
				}

			}
, 			{
				"patchline" : 				{
					"destination" : [ "obj-103", 1 ],
					"midpoints" : [ 653.33333283662796, 791.666662752628326, 613.33333283662796, 791.666662752628326, 613.33333283662796, 738.666662752628326, 573.33333283662796, 738.666662752628326 ],
					"source" : [ "obj-100", 0 ]
				}

			}
, 			{
				"patchline" : 				{
					"destination" : [ "obj-102", 0 ],
					"midpoints" : [ 693.33333283662796, 625.666662752628326, 673.16667902469635, 625.666662752628326 ],
					"source" : [ "obj-101", 0 ]
				}

			}
, 			{
				"patchline" : 				{
					"destination" : [ "obj-100", 0 ],
					"midpoints" : [ 713.833345691362979, 749.666662752628326, 653.33333283662796, 749.666662752628326 ],
					"source" : [ "obj-102", 1 ]
				}

			}
, 			{
				"patchline" : 				{
					"destination" : [ "obj-82", 0 ],
					"midpoints" : [ 558.33333283662796, 781.666662752628326, 366.58333283662796, 781.666662752628326, 366.58333283662796, 738.000018358230591, 174.83333283662796, 738.000018358230591 ],
					"source" : [ "obj-103", 0 ]
				}

			}
, 			{
				"patchline" : 				{
					"destination" : [ "obj-106", 1 ],
					"source" : [ "obj-104", 0 ]
				}

			}
, 			{
				"patchline" : 				{
					"destination" : [ "obj-122", 0 ],
					"source" : [ "obj-104", 1 ]
				}

			}
, 			{
				"patchline" : 				{
					"destination" : [ "obj-13", 0 ],
					"midpoints" : [ 149.166666309038789, 720.333328306674957, 117.33333283662796, 720.333328306674957 ],
					"source" : [ "obj-11", 1 ]
				}

			}
, 			{
				"patchline" : 				{
					"destination" : [ "obj-104", 0 ],
					"midpoints" : [ 82.33333283662796, 363.0, 160.711381617115762, 363.0, 160.711381617115762, 228.0, 307.052932115468479, 228.0 ],
					"source" : [ "obj-113", 0 ]
				}

			}
, 			{
				"patchline" : 				{
					"destination" : [ "obj-113", 0 ],
					"source" : [ "obj-115", 0 ]
				}

			}
, 			{
				"patchline" : 				{
					"destination" : [ "obj-123", 0 ],
					"source" : [ "obj-122", 0 ]
				}

			}
, 			{
				"patchline" : 				{
					"destination" : [ "obj-124", 0 ],
					"source" : [ "obj-122", 1 ]
				}

			}
, 			{
				"patchline" : 				{
					"destination" : [ "obj-125", 0 ],
					"source" : [ "obj-122", 2 ]
				}

			}
, 			{
				"patchline" : 				{
					"destination" : [ "obj-21", 0 ],
					"midpoints" : [ 797.833342790603638, 430.0, 282.249999433755875, 430.0, 282.249999433755875, 401.999994814395905, 99.833339512348175, 401.999994814395905 ],
					"source" : [ "obj-123", 0 ]
				}

			}
, 			{
				"patchline" : 				{
					"destination" : [ "obj-41", 0 ],
					"midpoints" : [ 856.333342790603638, 460.499997407197952, 342.333332479000092, 460.499997407197952 ],
					"source" : [ "obj-124", 0 ]
				}

			}
, 			{
				"patchline" : 				{
					"destination" : [ "obj-99", 0 ],
					"midpoints" : [ 920.422782605741077, 487.333331376314163, 624.922772651765399, 487.333331376314163 ],
					"source" : [ "obj-125", 0 ]
				}

			}
, 			{
				"patchline" : 				{
					"destination" : [ "obj-115", 0 ],
					"source" : [ "obj-126", 0 ]
				}

			}
, 			{
				"patchline" : 				{
					"destination" : [ "obj-10", 1 ],
					"midpoints" : [ 117.33333283662796, 762.333328306674957, 77.33333283662796, 762.333328306674957, 77.33333283662796, 703.999994814395905, 37.33333283662796, 703.999994814395905 ],
					"source" : [ "obj-13", 0 ]
				}

			}
, 			{
				"patchline" : 				{
					"destination" : [ "obj-126", 0 ],
					"source" : [ "obj-131", 0 ]
				}

			}
, 			{
				"patchline" : 				{
					"destination" : [ "obj-131", 0 ],
					"source" : [ "obj-133", 0 ]
				}

			}
, 			{
				"patchline" : 				{
					"destination" : [ "obj-135", 0 ],
					"source" : [ "obj-134", 0 ]
				}

			}
, 			{
				"patchline" : 				{
					"destination" : [ "obj-104", 0 ],
					"source" : [ "obj-135", 0 ]
				}

			}
, 			{
				"patchline" : 				{
					"destination" : [ "obj-135", 2 ],
					"midpoints" : [ 317.16666567325592, 187.0, 293.788617637826178, 187.0, 293.788617637826178, 163.0, 271.83333283662796, 163.0 ],
					"source" : [ "obj-136", 0 ]
				}

			}
, 			{
				"patchline" : 				{
					"destination" : [ "obj-134", 0 ],
					"order" : 1,
					"source" : [ "obj-137", 0 ]
				}

			}
, 			{
				"patchline" : 				{
					"destination" : [ "obj-136", 0 ],
					"midpoints" : [ 234.83333283662796, 135.0, 275.288617637826178, 135.0, 275.288617637826178, 90.5, 317.16666567325592, 90.5 ],
					"order" : 0,
					"source" : [ "obj-137", 0 ]
				}

			}
, 			{
				"patchline" : 				{
					"destination" : [ "obj-137", 0 ],
					"source" : [ "obj-141", 0 ]
				}

			}
, 			{
				"patchline" : 				{
					"destination" : [ "obj-143", 0 ],
					"source" : [ "obj-142", 0 ]
				}

			}
, 			{
				"patchline" : 				{
					"destination" : [ "obj-144", 0 ],
					"midpoints" : [ 412.83333283662796, 135.0, 453.288617637826178, 135.0, 453.288617637826178, 90.5, 493.743902439024396, 90.5 ],
					"order" : 0,
					"source" : [ "obj-143", 0 ]
				}

			}
, 			{
				"patchline" : 				{
					"destination" : [ "obj-146", 0 ],
					"order" : 1,
					"source" : [ "obj-143", 0 ]
				}

			}
, 			{
				"patchline" : 				{
					"destination" : [ "obj-145", 2 ],
					"midpoints" : [ 493.743902439024396, 187.0, 471.788617637826178, 187.0, 471.788617637826178, 163.0, 449.83333283662796, 163.0 ],
					"source" : [ "obj-144", 0 ]
				}

			}
, 			{
				"patchline" : 				{
					"destination" : [ "obj-104", 0 ],
					"source" : [ "obj-145", 0 ]
				}

			}
, 			{
				"patchline" : 				{
					"destination" : [ "obj-145", 0 ],
					"source" : [ "obj-146", 0 ]
				}

			}
, 			{
				"patchline" : 				{
					"destination" : [ "obj-148", 0 ],
					"source" : [ "obj-147", 0 ]
				}

			}
, 			{
				"patchline" : 				{
					"destination" : [ "obj-149", 0 ],
					"midpoints" : [ 583.83333283662796, 135.0, 624.288617637826178, 135.0, 624.288617637826178, 90.5, 664.743902439024396, 90.5 ],
					"order" : 0,
					"source" : [ "obj-148", 0 ]
				}

			}
, 			{
				"patchline" : 				{
					"destination" : [ "obj-151", 0 ],
					"order" : 1,
					"source" : [ "obj-148", 0 ]
				}

			}
, 			{
				"patchline" : 				{
					"destination" : [ "obj-150", 2 ],
					"midpoints" : [ 664.743902439024396, 187.0, 642.788617637826178, 187.0, 642.788617637826178, 167.0, 620.83333283662796, 167.0 ],
					"source" : [ "obj-149", 0 ]
				}

			}
, 			{
				"patchline" : 				{
					"destination" : [ "obj-104", 0 ],
					"midpoints" : [ 583.83333283662796, 230.0, 307.052932115468479, 230.0 ],
					"source" : [ "obj-150", 0 ]
				}

			}
, 			{
				"patchline" : 				{
					"destination" : [ "obj-150", 0 ],
					"source" : [ "obj-151", 0 ]
				}

			}
, 			{
				"patchline" : 				{
					"destination" : [ "obj-11", 0 ],
					"source" : [ "obj-185", 0 ]
				}

			}
, 			{
				"patchline" : 				{
					"destination" : [ "obj-7", 0 ],
					"source" : [ "obj-193", 0 ]
				}

			}
, 			{
				"patchline" : 				{
					"destination" : [ "obj-141", 0 ],
					"midpoints" : [ 412.83333283662796, 51.5, 234.83333283662796, 51.5 ],
					"order" : 2,
					"source" : [ "obj-198", 0 ]
				}

			}
, 			{
				"patchline" : 				{
					"destination" : [ "obj-142", 0 ],
					"order" : 1,
					"source" : [ "obj-198", 0 ]
				}

			}
, 			{
				"patchline" : 				{
					"destination" : [ "obj-147", 0 ],
					"midpoints" : [ 412.83333283662796, 49.5, 583.83333283662796, 49.5 ],
					"order" : 0,
					"source" : [ "obj-198", 0 ]
				}

			}
, 			{
				"patchline" : 				{
					"destination" : [ "obj-198", 0 ],
					"midpoints" : [ 317.16666567325592, 41.0, 364.99999925494194, 41.0, 364.99999925494194, -2.0, 412.83333283662796, -2.0 ],
					"source" : [ "obj-200", 0 ]
				}

			}
, 			{
				"patchline" : 				{
					"destination" : [ "obj-11", 0 ],
					"midpoints" : [ 99.833339512348175, 596.333328306674957, 108.499999642372131, 596.333328306674957 ],
					"source" : [ "obj-21", 0 ]
				}

			}
, 			{
				"patchline" : 				{
					"destination" : [ "obj-44", 0 ],
					"midpoints" : [ 342.333332479000092, 571.999994814395905, 385.16667902469635, 571.999994814395905 ],
					"source" : [ "obj-41", 0 ]
				}

			}
, 			{
				"patchline" : 				{
					"destination" : [ "obj-45", 1 ],
					"midpoints" : [ 365.33333283662796, 737.999994814395905, 325.33333283662796, 737.999994814395905, 325.33333283662796, 684.999994814395905, 285.33333283662796, 684.999994814395905 ],
					"source" : [ "obj-42", 0 ]
				}

			}
, 			{
				"patchline" : 				{
					"destination" : [ "obj-44", 0 ],
					"midpoints" : [ 405.33333283662796, 571.999994814395905, 385.16667902469635, 571.999994814395905 ],
					"source" : [ "obj-43", 0 ]
				}

			}
, 			{
				"patchline" : 				{
					"destination" : [ "obj-42", 0 ],
					"midpoints" : [ 425.833345691363036, 695.999994814395905, 365.33333283662796, 695.999994814395905 ],
					"source" : [ "obj-44", 1 ]
				}

			}
, 			{
				"patchline" : 				{
					"destination" : [ "obj-82", 0 ],
					"midpoints" : [ 270.33333283662796, 714.000006586313248, 174.83333283662796, 714.000006586313248 ],
					"source" : [ "obj-45", 0 ]
				}

			}
, 			{
				"patchline" : 				{
					"destination" : [ "obj-10", 0 ],
					"source" : [ "obj-7", 0 ]
				}

			}
, 			{
				"patchline" : 				{
					"destination" : [ "obj-83", 1 ],
					"order" : 0,
					"source" : [ "obj-82", 0 ]
				}

			}
, 			{
				"patchline" : 				{
					"destination" : [ "obj-83", 0 ],
					"order" : 1,
					"source" : [ "obj-82", 0 ]
				}

			}
, 			{
				"patchline" : 				{
					"destination" : [ "obj-89", 0 ],
					"source" : [ "obj-87", 0 ]
				}

			}
, 			{
				"patchline" : 				{
					"destination" : [ "obj-45", 0 ],
					"source" : [ "obj-89", 0 ]
				}

			}
, 			{
				"patchline" : 				{
					"destination" : [ "obj-89", 0 ],
					"midpoints" : [ 385.16667902469635, 588.500010550022125, 269.833342254161835, 588.500010550022125 ],
					"source" : [ "obj-90", 0 ]
				}

			}
, 			{
				"patchline" : 				{
					"destination" : [ "obj-90", 0 ],
					"source" : [ "obj-92", 0 ]
				}

			}
, 			{
				"patchline" : 				{
					"destination" : [ "obj-94", 0 ],
					"source" : [ "obj-93", 0 ]
				}

			}
, 			{
				"patchline" : 				{
					"destination" : [ "obj-95", 0 ],
					"midpoints" : [ 673.16667902469635, 642.166678488254547, 557.833342254161835, 642.166678488254547 ],
					"source" : [ "obj-94", 0 ]
				}

			}
, 			{
				"patchline" : 				{
					"destination" : [ "obj-103", 0 ],
					"source" : [ "obj-95", 0 ]
				}

			}
, 			{
				"patchline" : 				{
					"destination" : [ "obj-95", 0 ],
					"source" : [ "obj-96", 0 ]
				}

			}
, 			{
				"patchline" : 				{
					"destination" : [ "obj-102", 0 ],
					"midpoints" : [ 624.922772651765399, 625.666662752628326, 673.16667902469635, 625.666662752628326 ],
					"source" : [ "obj-99", 0 ]
				}

			}
 ],
		"dependency_cache" : [  ],
		"autosave" : 0
	}

}
